<svg xmlns="http://www.w3.org/2000/svg" width="640" height="760" viewBox="0 0 640 760">
  <defs>
    <style>
      .title { font: 600 36px 'Inter', sans-serif; fill: #3a3a3a; }
      .label { font: 500 22px 'Inter', sans-serif; fill: #5a5a5a; }
      .amount { font: 500 22px 'Inter', sans-serif; fill: #5a5a5a; }
      .caption { font: 500 22px 'Inter', sans-serif; fill: #5a5a5a; }
    </style>
  </defs>
  <rect width="640" height="760" rx="32" fill="#f4f7fb" />
  <circle cx="90" cy="90" r="34" fill="#2e7d32" />
  <text x="90" y="100" text-anchor="middle" font-size="30" fill="#fff" font-family="Inter">S</text>
  <text x="140" y="102" class="title">SAURABH VERMA</text>
  <rect x="90" y="150" width="460" height="460" rx="28" fill="#fff" />
  <rect x="150" y="210" width="340" height="340" fill="#fff" stroke="#111" stroke-width="16" />
  <rect x="170" y="230" width="80" height="80" fill="#111" />
  <rect x="400" y="230" width="80" height="80" fill="#111" />
  <rect x="170" y="460" width="80" height="80" fill="#111" />
  <rect x="260" y="320" width="40" height="40" fill="#111" />
  <rect x="340" y="360" width="40" height="40" fill="#111" />
  <rect x="380" y="320" width="40" height="40" fill="#111" />
  <circle cx="320" cy="380" r="38" fill="#fff" stroke="#e5e5e5" stroke-width="6" />
  <circle cx="320" cy="380" r="28" fill="#f4b400" />
  <rect x="304" y="360" width="32" height="40" rx="12" fill="#34a853" />
  <rect x="306" y="356" width="28" height="28" rx="10" fill="#4285f4" opacity="0.9" />
  <text x="320" y="640" text-anchor="middle" class="label">UPI ID: sauravvarmag8@oksbi</text>
  <text x="320" y="675" text-anchor="middle" class="amount">Amount: ₹1499.00</text>
  <text x="320" y="720" text-anchor="middle" class="caption">Scan to pay with any UPI app</text>
</svg>
